<?xml version="1.0" standalone="no"?>
<!DOCTYPE svg PUBLIC "-//W3C//DTD SVG 20010904//EN"
 "http://www.w3.org/TR/2001/REC-SVG-20010904/DTD/svg10.dtd">
<svg version="1.0" xmlns="http://www.w3.org/2000/svg"
 width="500.000000pt" height="500.000000pt" viewBox="0 0 500.000000 500.000000"
 preserveAspectRatio="xMidYMid meet">

<g transform="translate(0.000000,500.000000) scale(0.100000,-0.100000)"
fill="#000000" stroke="none">
<path d="M3326 3335 c-11 -29 -6 -89 9 -109 17 -22 20 -52 6 -61 -5 -3 -13 0
-17 6 -5 8 -3 9 7 4 8 -5 5 2 -6 14 -37 42 -109 67 -76 27 7 -8 22 -34 34 -58
15 -28 30 -44 45 -46 16 -2 22 -10 22 -27 0 -54 -11 -57 -47 -10 -19 25 -42
45 -53 45 -17 0 -18 -2 -4 -27 7 -16 14 -34 14 -41 0 -25 30 -71 50 -77 11 -3
20 -14 20 -23 0 -12 -9 -7 -33 16 -18 17 -47 35 -65 38 l-32 7 15 -29 c8 -16
15 -36 15 -44 1 -22 22 -46 48 -52 29 -8 29 10 -1 21 -14 6 -27 23 -34 45 -14
47 2 48 43 4 16 -18 20 -25 8 -15 -31 25 -41 21 -15 -7 35 -37 38 -138 6 -208
-22 -49 -24 -50 -25 -23 0 18 -3 25 -8 18 -5 -8 -12 -2 -21 18 -7 16 -17 29
-22 29 -5 0 -3 -13 6 -30 27 -52 16 -47 -20 10 -51 78 -45 160 7 113 21 -18
21 -18 8 7 -12 22 -12 24 3 12 8 -7 19 -32 23 -55 4 -23 9 -36 12 -29 2 8 -1
33 -8 58 -14 49 -33 56 -70 26 -32 -26 -28 -69 10 -140 l32 -57 -49 50 c-82
85 -91 87 -48 11 37 -68 38 -69 10 -48 -15 12 -41 22 -57 22 l-29 0 3 108 3
107 -32 44 c-39 52 -48 42 -41 -51 4 -51 9 -64 31 -82 21 -17 27 -30 27 -60 0
-36 -1 -38 -17 -24 -10 9 -38 26 -62 38 l-44 22 5 -55 c3 -36 12 -64 27 -83
l23 -29 -33 -3 c-51 -4 -83 -20 -100 -48 l-16 -26 -32 46 c-17 26 -31 51 -31
57 0 5 -4 9 -8 9 -9 0 -32 -135 -32 -187 0 -31 -1 -31 -40 -26 -35 5 -43 2
-80 -34 -22 -22 -40 -44 -40 -48 0 -5 15 6 34 24 26 25 39 31 56 26 13 -4 20
-3 17 2 -5 8 6 9 44 4 13 -2 70 -63 95 -102 20 -32 23 -44 13 -53 -6 -6 -9 -6
-6 -1 3 6 -6 11 -19 11 -23 2 -24 1 -7 -13 17 -13 15 -14 -14 -10 -18 2 -33 0
-33 -5 0 -4 9 -8 19 -8 11 0 28 -3 38 -7 16 -6 15 -8 -7 -13 -14 -4 -35 -3
-47 1 -14 5 -23 5 -23 -1 0 -14 45 -23 75 -16 17 4 25 2 25 -6 0 -10 -26 -13
-98 -13 -112 0 -144 13 -168 70 -21 51 -19 79 6 72 11 -3 18 -1 14 4 -3 5 -14
9 -25 9 -15 0 -19 -7 -19 -36 0 -19 5 -44 10 -55 9 -16 6 -25 -19 -50 -17 -17
-33 -46 -37 -67 -10 -54 -13 -56 -38 -20 -36 54 -81 78 -147 78 -67 0 -90 -16
-88 -63 2 -28 2 -29 6 -7 8 41 22 50 80 50 89 0 134 -40 169 -148 18 -56 12
-81 -11 -47 -8 11 -18 25 -23 31 -5 6 -13 20 -16 32 -8 25 -74 82 -95 82 -8 0
5 -14 28 -31 24 -16 49 -46 57 -64 20 -48 18 -51 -12 -15 -15 17 -29 29 -31
26 -3 -2 5 -14 16 -25 12 -12 21 -30 21 -41 0 -17 -3 -19 -19 -10 -11 5 -28
10 -38 10 -11 -1 -6 -6 15 -15 17 -8 32 -18 32 -23 0 -4 12 -13 28 -19 23 -9
24 -11 6 -12 -12 -1 -27 5 -33 13 -7 8 -34 20 -62 26 -52 13 -109 57 -109 84
0 18 15 21 25 6 3 -5 10 -10 15 -10 5 0 -3 13 -18 28 -15 15 -31 25 -36 21
-14 -12 3 -75 29 -103 l24 -26 -32 -14 c-54 -23 -117 -75 -117 -96 0 -11 4
-20 9 -20 10 0 24 -30 17 -38 -3 -2 -18 5 -34 17 -35 24 -99 28 -128 7 -10 -8
-17 -16 -14 -18 3 -2 19 -15 36 -31 45 -41 82 -48 141 -28 40 13 55 15 78 5
l28 -11 -34 -12 c-19 -7 -61 -16 -95 -21 -45 -6 -75 -17 -112 -43 -28 -19 -62
-37 -77 -41 -33 -8 -25 -22 20 -30 56 -11 115 11 160 59 22 23 49 45 60 48 11
3 30 8 41 12 21 5 21 5 8 -32 -7 -21 -13 -48 -14 -61 0 -13 -5 -32 -10 -43 -8
-14 -7 -19 3 -19 22 0 105 57 123 85 16 24 18 25 35 9 11 -10 22 -14 26 -11 3
4 -6 18 -20 31 -15 14 -27 34 -27 45 0 20 110 175 118 166 2 -2 -10 -29 -27
-59 -40 -71 -40 -83 0 -22 34 51 46 55 29 11 -6 -15 -9 -30 -7 -32 4 -3 9 9
32 72 7 19 8 18 15 -5 7 -23 8 -23 9 8 2 51 23 34 44 -34 20 -68 15 -106 -17
-128 -13 -8 -31 -23 -41 -33 -18 -17 -18 -17 -12 15 4 21 3 31 -3 27 -6 -3
-10 -17 -10 -29 0 -31 -23 -49 -51 -41 -14 5 -19 4 -15 -4 15 -23 66 -12 103
23 19 18 44 41 54 50 13 11 19 29 19 56 l0 41 29 -22 c20 -15 35 -19 48 -14
17 8 17 8 -2 13 -11 2 -26 9 -33 15 -12 9 -72 94 -72 102 0 6 45 -8 59 -19 12
-8 13 -8 7 2 -4 7 -20 18 -34 24 l-27 11 30 8 c17 5 46 7 65 4 109 -14 120
-18 120 -35 0 -14 -6 -17 -22 -13 -21 5 -21 4 -6 -8 15 -12 15 -16 3 -33 -14
-18 -15 -18 -40 -2 -15 10 -29 15 -32 13 -2 -3 7 -13 21 -23 26 -16 26 -17 9
-37 -16 -18 -16 -20 -1 -14 13 4 20 -4 32 -40 9 -26 16 -60 16 -76 0 -18 4
-27 13 -25 17 6 57 79 57 106 0 50 44 1 58 -65 l8 -38 22 34 c54 88 48 199
-16 267 -17 18 -18 23 -6 45 9 16 13 19 14 8 0 -8 13 -28 29 -43 44 -42 101
-45 171 -9 49 25 57 34 76 83 29 77 18 113 -21 70 -23 -26 -29 -25 -43 5 -6
14 -16 25 -22 25 -6 0 -6 -7 2 -19 16 -26 -12 -81 -66 -134 -37 -36 -40 -37
-62 -22 -40 26 -56 71 -55 153 1 41 4 79 7 84 12 20 24 -17 24 -78 0 -39 5
-67 16 -80 15 -18 15 -18 5 2 -6 12 -9 48 -8 82 1 51 3 58 14 44 11 -15 12
-13 4 8 -5 14 -14 24 -21 22 -6 -1 -8 2 -5 9 8 13 53 -25 65 -56 7 -16 9 -17
9 -3 1 9 -11 30 -25 47 -25 30 -21 44 5 19 11 -11 11 -9 2 9 -11 21 -10 21 37
9 66 -18 100 -37 123 -72 16 -23 19 -24 14 -7 -10 34 41 43 110 18 19 -6 19
-6 2 8 -26 21 -13 25 82 25 46 1 86 3 89 6 3 4 -25 6 -62 6 l-66 0 17 28 17
27 -30 -26 c-16 -15 -45 -30 -64 -34 -19 -3 -44 -9 -54 -12 -13 -3 -7 6 16 26
42 36 68 86 68 129 0 32 -14 50 -25 32 -3 -5 -21 -10 -38 -11 -31 0 -31 -1 -8
-10 18 -7 28 -5 42 7 18 16 19 16 19 -6 0 -64 -90 -167 -137 -158 -14 2 -9 8
19 25 24 14 39 32 43 50 4 15 11 39 16 51 7 18 6 23 -3 20 -7 -3 -17 -21 -21
-42 -7 -27 -21 -46 -49 -66 -36 -26 -41 -27 -66 -14 -15 8 -42 17 -60 20 -42
8 -24 23 28 25 28 0 31 2 15 8 -11 5 -33 4 -50 0 -56 -17 -50 -9 23 27 40 20
71 39 68 41 -2 2 -27 -8 -56 -22 -29 -15 -58 -24 -66 -21 -7 3 -16 1 -19 -4
-4 -6 -13 -10 -22 -10 -12 0 -13 3 -4 14 13 15 11 126 -1 126 -5 0 -8 -10 -8
-22 -1 -19 -4 -16 -16 12 -18 40 -22 91 -10 135 4 16 5 27 1 23 -19 -18 -24
-88 -10 -134 9 -31 11 -50 4 -54 -5 -4 -7 -15 -4 -26 5 -17 5 -17 -4 1 -5 11
-12 29 -15 39 -4 10 -9 16 -12 13 -3 -3 2 -26 11 -51 9 -24 15 -50 13 -57 -8
-23 -58 157 -58 207 0 27 8 65 18 84 15 30 24 36 75 46 54 11 61 10 58 -8 0
-4 5 -5 12 -2 10 3 13 -4 11 -28 l-3 -33 11 38 c6 20 15 37 19 37 13 0 49 -67
49 -92 0 -39 -26 -92 -70 -143 -56 -65 -50 -81 8 -19 26 29 64 61 85 72 36 21
37 21 37 2 0 -13 -14 -25 -42 -38 -57 -26 -144 -102 -127 -113 12 -7 83 20 75
29 -2 2 -15 -2 -28 -9 -23 -12 -23 -12 2 16 59 65 180 97 234 62 35 -23 44 -7
48 85 2 47 7 74 13 71 28 -16 53 -47 50 -63 -2 -10 6 -27 17 -37 21 -18 21
-18 14 11 -4 17 -16 42 -27 57 l-19 27 34 -8 c37 -8 83 -3 91 11 3 4 -10 5
-30 2 -22 -4 -52 1 -83 13 l-47 18 45 13 45 13 -45 -4 c-37 -4 -42 -3 -25 7
11 6 36 14 55 19 35 7 35 7 -5 4 -22 -2 -49 -7 -60 -11 -11 -4 -4 3 15 16 38
26 120 33 140 13 7 -7 12 -29 12 -50 1 -38 1 -38 10 -11 12 33 -9 73 -45 86
-24 9 -80 6 -100 -6 -7 -3 -3 5 8 18 33 39 67 90 63 94 -2 2 -24 -9 -48 -25
-43 -29 -45 -29 -48 -9 -5 30 23 65 58 72 17 4 52 27 78 51 40 38 44 46 29 51
-30 12 -63 -3 -109 -51 l-45 -46 10 54 c9 49 13 56 41 64 18 5 39 23 53 44 12
19 29 43 38 53 13 15 13 18 1 23 -14 5 -50 -11 -91 -41 -20 -14 -20 -13 -17
25 3 24 9 40 17 40 32 0 102 116 82 136 -8 9 -66 -25 -80 -46 -6 -11 -15 -20
-18 -20 -4 0 -9 36 -10 80 -4 78 -20 119 -33 85z m23 -53 c0 -24 -1 -25 -9 -7
-12 28 -12 47 0 40 6 -3 10 -18 9 -33z m95 -98 c-11 -21 -30 -44 -44 -53 -24
-15 -25 -15 -9 4 29 36 34 51 9 30 l-23 -20 11 22 c13 24 62 66 70 59 2 -3 -4
-22 -14 -42z m-134 11 c10 -12 10 -15 -1 -15 -7 0 0 -13 15 -29 26 -27 27 -29
7 -24 -30 8 -68 83 -42 83 5 0 14 -7 21 -15z m-19 -122 c13 -14 18 -23 10 -18
-9 5 -12 3 -9 -6 3 -8 11 -13 17 -11 7 1 10 -2 6 -8 -4 -6 -1 -17 5 -25 9 -10
9 -15 1 -15 -14 0 -39 39 -51 79 -5 17 -7 31 -6 31 1 0 13 -12 27 -27z m150
-41 c-12 -23 -59 -62 -73 -62 -6 0 0 9 13 20 16 13 19 19 10 20 -8 0 0 11 19
25 37 28 47 27 31 -3z m-411 -137 c0 -34 -2 -37 -14 -25 -8 8 -16 26 -18 40
-2 14 -7 31 -11 38 -5 6 -5 17 -1 23 12 21 44 -33 44 -76z m420 0 c-37 -38
-49 -40 -28 -3 16 28 28 38 47 38 9 0 2 -14 -19 -35z m-40 -10 c-7 -9 -15 -13
-17 -11 -7 7 7 26 19 26 6 0 6 -6 -2 -15z m-394 -157 c11 -36 -11 -41 -39 -9
-14 17 -27 36 -30 43 -2 7 -7 10 -11 7 -4 -4 9 -28 29 -54 27 -35 32 -46 18
-43 -24 4 -63 65 -63 99 l0 28 45 -25 c24 -14 47 -34 51 -46z m339 2 c4 -6 1
-9 -7 -8 -7 2 -12 -3 -10 -10 1 -8 -2 -11 -8 -7 -8 5 -7 11 1 21 14 17 16 17
24 4z m-225 -55 c14 -12 36 -29 50 -38 30 -21 5 -22 -30 -2 -14 8 -38 14 -55
14 l-30 -1 30 -7 c17 -4 44 -15 60 -24 30 -16 30 -16 5 -17 -14 -1 -19 -4 -11
-7 9 -4 2 -10 -19 -19 -44 -19 -47 -18 -54 12 -4 14 -21 39 -38 54 -26 24 -29
32 -19 44 25 30 71 26 111 -9z m-359 -61 c16 -27 24 -60 30 -125 5 -63 13
-100 28 -125 12 -20 19 -39 16 -42 -14 -14 -61 101 -78 191 -7 31 -15 57 -18
57 -4 0 -1 -32 7 -72 8 -39 12 -73 10 -76 -10 -9 -39 51 -40 81 -1 36 13 147
19 147 2 0 13 -16 26 -36z m494 6 c3 -5 -1 -10 -10 -10 -9 0 -13 5 -10 10 3 6
8 10 10 10 2 0 7 -4 10 -10z m-20 -30 c-3 -5 -13 -10 -21 -10 -8 0 -14 5 -14
10 0 6 9 10 21 10 11 0 17 -4 14 -10z m-65 -47 c-23 -29 -60 -58 -60 -47 0 4
8 13 18 20 13 9 14 16 6 24 -9 9 -20 0 -43 -34 -18 -25 -33 -46 -35 -46 -2 0
3 20 11 44 15 44 45 65 68 46 6 -5 18 -3 29 6 29 20 30 17 6 -13z m38 -3 c-5
-32 6 -29 16 5 3 11 4 -5 2 -35 l-4 -55 11 48 c6 26 14 47 17 47 10 0 22 -113
14 -134 -6 -15 -9 -15 -23 -3 -9 8 -24 17 -34 20 -10 4 -15 11 -12 17 3 5 1
10 -4 10 -6 0 -11 -4 -11 -10 0 -5 -11 -10 -25 -10 -32 0 -33 24 -1 51 14 12
30 34 36 50 16 38 23 37 18 -1z m-297 -217 c-10 -17 -10 -16 -11 3 0 23 13 41
18 25 2 -6 -1 -18 -7 -28z m-39 -98 c10 3 28 8 40 11 19 6 20 5 8 -7 -29 -27
-64 -38 -83 -24 -18 13 -22 36 -10 49 4 4 12 -2 17 -14 6 -13 15 -19 28 -15z
m-303 -6 c23 -17 42 -21 96 -20 l68 1 -43 -23 c-24 -13 -46 -29 -48 -37 -3 -8
6 -5 23 8 15 12 43 24 64 28 20 4 42 11 49 17 7 5 15 8 17 5 3 -3 -17 -19 -45
-37 -27 -18 -52 -36 -55 -42 -4 -5 15 4 41 21 55 34 68 32 33 -7 -14 -17 -7
-13 18 10 27 23 48 34 58 31 32 -13 -5 -215 -43 -238 -7 -4 -9 6 -6 31 l4 38
-11 -35 c-6 -19 -15 -40 -21 -47 -12 -15 -59 -7 -112 19 -36 19 -38 22 -33 56
5 31 4 34 -5 17 -12 -19 -12 -19 -19 5 -6 22 -7 23 -8 4 -1 -17 -9 -23 -35
-26 -32 -4 -33 -3 -25 24 4 16 4 28 -2 28 -5 0 -9 -9 -9 -19 0 -11 -4 -22 -9
-25 -12 -8 -2 67 15 119 7 21 11 41 9 44 -7 7 -35 -66 -35 -91 0 -13 -3 -34
-7 -46 -10 -38 -23 -5 -23 60 0 61 12 102 37 130 21 23 28 23 62 -3z m566
-177 c-9 -20 -20 -44 -24 -52 -12 -23 -88 -62 -113 -58 -21 4 -20 6 14 27 24
14 39 32 43 52 5 21 16 33 41 44 19 8 37 22 41 32 4 11 8 13 11 5 2 -7 -3 -29
-13 -50z m-518 -81 l22 -28 -42 1 c-23 1 -46 7 -50 14 -5 8 -7 14 -5 15 1 1
12 7 23 14 27 16 27 16 52 -16z m-112 10 c10 -17 -12 -21 -25 -6 -10 12 -10
15 3 15 9 0 18 -4 22 -9z m-168 -36 c41 -17 40 -23 -4 -27 -18 -1 -30 -5 -28
-9 3 -3 19 -5 37 -3 24 3 29 1 18 -6 -8 -5 -35 -10 -60 -11 l-45 -1 35 -8 c19
-5 46 -6 60 -4 l25 6 -25 -21 c-14 -11 -29 -21 -33 -21 -5 0 -6 -4 -3 -9 10
-15 -31 -43 -72 -48 -41 -6 -87 12 -113 43 -13 16 -12 17 6 10 11 -4 36 -10
55 -12 28 -3 25 -1 -14 10 -86 25 -87 48 -4 95 60 35 109 39 165 16z m164 -20
c-1 -3 -4 -5 -8 -6 -5 0 -13 -5 -19 -10 -7 -6 -16 -4 -24 6 -13 15 -13 16 30
28 14 4 23 -4 21 -18z m358 -1 c43 -54 50 -152 17 -213 l-13 -24 -7 28 c-4 14
-26 48 -50 73 -50 55 -59 74 -46 104 6 17 9 18 9 6 1 -21 81 -115 81 -95 0 8
-9 22 -21 33 -12 10 -28 32 -36 48 -14 28 -14 30 8 47 31 24 34 24 58 -7z
m-132 -106 c-2 -13 -1 -34 3 -48 6 -20 8 -14 9 25 l1 50 20 -30 c25 -38 25
-58 -2 -114 l-22 -45 -13 69 c-8 38 -12 79 -8 92 7 30 19 30 12 1z m-652 -8
c36 -24 23 -26 -35 -5 -47 17 -70 12 -26 -5 15 -5 31 -10 35 -10 4 0 16 -7 27
-15 18 -14 17 -14 -13 -15 -31 0 -93 41 -93 61 0 17 75 9 105 -11z m190 -76
c-19 -25 -35 -53 -35 -62 0 -9 12 3 26 27 23 37 28 41 36 27 15 -27 -10 -74
-56 -108 -41 -29 -41 -29 -44 -8 -8 53 57 158 105 169 2 1 -13 -20 -32 -45z
m-190 -34 c-3 -5 -26 -21 -51 -36 -24 -14 -41 -30 -38 -35 3 -5 -14 -9 -38 -8
-39 0 -40 1 -18 10 13 6 39 21 58 36 28 21 49 31 90 42 2 1 0 -3 -3 -9z m-39
-55 c-11 -8 -25 -15 -30 -15 -6 1 0 7 14 15 32 19 40 18 16 0z"/>
<path d="M3405 3020 c-3 -5 -2 -10 4 -10 5 0 13 5 16 10 3 6 2 10 -4 10 -5 0
-13 -4 -16 -10z"/>
<path d="M2721 2014 c0 -11 3 -14 6 -6 3 7 2 16 -1 19 -3 4 -6 -2 -5 -13z"/>
<path d="M2568 1953 c7 -3 16 -2 19 1 4 3 -2 6 -13 5 -11 0 -14 -3 -6 -6z"/>
<path d="M2228 1883 c6 -2 18 -2 25 0 6 3 1 5 -13 5 -14 0 -19 -2 -12 -5z"/>
<path d="M1716 3241 c-27 -28 -87 -59 -188 -95 -66 -24 -98 -57 -98 -101 0
-47 14 -71 50 -90 41 -21 67 -19 75 6 5 14 0 27 -14 41 -21 18 -22 51 -2 69
19 18 162 87 158 76 -2 -7 -17 -57 -31 -112 -15 -55 -34 -121 -42 -147 -14
-44 -17 -46 -40 -38 -14 6 -48 10 -75 10 -42 0 -55 -5 -80 -29 -30 -31 -38
-75 -19 -111 22 -41 122 -52 183 -20 l37 20 72 -74 c72 -73 114 -96 175 -96
38 0 73 18 73 39 0 43 -10 51 -64 51 -59 0 -85 15 -155 93 -43 47 -44 48 -32
85 59 179 127 432 118 441 -22 22 -72 12 -101 -18z m-147 -450 c7 -5 10 -14 6
-20 -10 -17 -52 -32 -70 -25 -15 6 -20 35 -8 47 9 10 55 8 72 -2z"/>
<path d="M1940 3193 c-40 -14 -54 -75 -21 -93 29 -15 49 -12 71 10 42 42 6
102 -50 83z"/>
<path d="M2136 3027 c-28 -30 -69 -89 -91 -132 -46 -90 -96 -148 -122 -143
-23 4 -21 21 18 162 17 59 27 112 22 116 -18 18 -60 21 -75 6 -18 -18 -78
-239 -78 -289 0 -45 22 -67 66 -67 72 0 130 53 198 182 53 98 87 143 96 126 4
-7 15 -45 25 -85 15 -65 15 -74 2 -94 -9 -12 -13 -28 -10 -36 3 -8 0 -19 -7
-23 -21 -13 -48 1 -59 31 -11 32 -19 35 -45 16 -25 -18 -13 -70 22 -98 35 -27
121 -23 155 8 12 11 38 23 58 27 21 4 42 13 49 21 18 22 25 19 38 -18 27 -74
133 -75 190 -2 l20 25 10 -29 c30 -86 150 -42 216 78 25 47 27 71 6 71 -4 0
-20 -20 -34 -44 -27 -47 -69 -86 -92 -86 -19 0 -18 39 2 118 18 73 12 84 -40
80 -24 -3 -31 -11 -47 -52 -52 -132 -139 -193 -139 -98 0 48 31 108 77 150 42
37 93 43 150 15 26 -12 40 -14 52 -6 45 29 -9 79 -96 89 -107 13 -190 -37
-260 -158 -68 -116 -113 -142 -113 -64 0 24 -7 63 -16 87 -9 24 -17 71 -18
104 l-1 60 -39 3 c-36 3 -43 -1 -90 -51z"/>
<path d="M3304 2525 c2 -15 23 -34 37 -35 3 0 6 7 6 15 0 9 -6 14 -14 11 -7
-3 -12 0 -10 6 1 6 -3 12 -10 15 -6 2 -10 -3 -9 -12z"/>
<path d="M2687 2439 c7 -7 15 -10 18 -7 3 3 -2 9 -12 12 -14 6 -15 5 -6 -5z"/>
<path d="M2620 2311 c26 -21 86 -38 97 -27 4 3 -5 6 -18 6 -13 0 -42 9 -64 20
-40 21 -40 21 -15 1z"/>
<path d="M3364 2161 c16 -17 16 -19 -2 -24 -11 -2 -26 -1 -33 4 -23 14 -48 10
-70 -12 -16 -16 -20 -29 -16 -55 3 -19 2 -34 -4 -34 -5 0 -9 -7 -9 -15 0 -8 6
-15 14 -15 11 0 14 11 11 42 -3 54 6 83 16 48 7 -25 7 -24 8 4 1 29 1 29 21
11 18 -17 20 -17 14 -2 -7 19 11 23 22 5 4 -6 10 -29 14 -50 8 -41 -3 -50 -27
-20 -14 16 -14 16 -9 -1 3 -11 1 -17 -7 -16 -6 1 -19 1 -27 0 -13 -1 -13 -2 0
-11 20 -13 77 -13 85 0 4 6 19 9 33 8 24 -3 27 1 29 27 l2 30 -9 -30 c-7 -29
-8 -29 -10 -5 -2 18 -4 20 -7 8 -2 -10 -8 -18 -11 -18 -14 0 -36 19 -30 25 4
4 3 18 -2 31 -6 15 -6 24 0 24 6 0 10 -6 10 -12 0 -9 3 -9 9 1 7 11 10 9 14
-10 4 -21 4 -20 6 6 l1 30 20 -25 c11 -14 20 -20 20 -15 0 6 -18 27 -40 48
-41 38 -66 51 -36 18z"/>
<path d="M2461 1784 c0 -11 3 -14 6 -6 3 7 2 16 -1 19 -3 4 -6 -2 -5 -13z"/>
<path d="M2372 1725 c0 -16 2 -22 5 -12 2 9 2 23 0 30 -3 6 -5 -1 -5 -18z"/>
</g>
</svg>
